# xmcd
#
# Track frame offsets: 
#        150
#        10836
#        21201
#        29769
#        40047
#        49153
#        61347
#        73088
#        86842
#        98191
#        107180
#        117077
#        129988
#        140148
#        150851
#        156859
#        166383
#        174932
#        183754
#        195624
#        205022
#        215240
#        222934
#        232954
#        243110
#        253284
#
# Disc length: 3522 seconds
#
# Revision: 0
# Processed by: cddbd v1.5.2PL0 Copyright (c) Steve Scherf et al.
# Submitted via: ExactAudioCopy v1.0b1
#
DISCID=6c0dc01a
DTITLE=Johnny Cash - 8 classic albums - CD 2
DYEAR=2011
DGENRE=Country
TTITLE0=Run softly blue river
TTITLE1=Frankies man, Johnny
TTITLE2=That's all over
TTITLE3=The troubadour
TTITLE4=One more ride
TTITLE5=That's enough
TTITLE6=I still miss someone
TTITLE7=Don't take no guns to town
TTITLE8=I'd rather die young
TTITLE9=Pickin' time
TTITLE10=Shepherd of my heart
TTITLE11=Suppertime
TTITLE12=Goodbye little darlin, goodbye
TTITLE13=I just know you'd like to know
TTITLE14=You tell me
TTITLE15=It's just about time
TTITLE16=I forgot to remember to forget
TTITLE17=Katy too
TTITLE18=Thanks a lot
TTITLE19=Luther played the boogie
TTITLE20=You win again
TTITLE21=Hey good lookin'
TTITLE22=I could never be ashamed of you
TTITLE23=Get rhythm
TTITLE24=Straight A's in love
TTITLE25=I love you because
EXTD=
EXTT0=
EXTT1=
EXTT2=
EXTT3=
EXTT4=
EXTT5=
EXTT6=
EXTT7=
EXTT8=
EXTT9=
EXTT10=
EXTT11=
EXTT12=
EXTT13=
EXTT14=
EXTT15=
EXTT16=
EXTT17=
EXTT18=
EXTT19=
EXTT20=
EXTT21=
EXTT22=
EXTT23=
EXTT24=
EXTT25=
PLAYORDER=
